<svg version="1.1" id="Layer_1" xmlns:x="&ns_extend;" xmlns:i="&ns_ai;" xmlns:graph="&ns_graphs;"
	 xmlns="http://www.w3.org/2000/svg" xmlns:xlink="http://www.w3.org/1999/xlink" x="0px" y="0px" width="255.232px"
	 height="66.132px" viewBox="161.754 390.232 255.232 66.132" enable-background="new 161.754 390.232 255.232 66.132"
	 xml:space="preserve">
<g>
	<g>
		<g>
			<defs>
				<path id="SVGID_1_" d="M166.747,403.078l35.506-20.5c3.108-1.793,7.084-0.729,8.879,2.38l0.501,0.866
					c1.793,3.109,0.729,7.084-2.379,8.88l-35.508,20.5c-3.107,1.795-7.083,0.729-8.878-2.379l-0.501-0.866
					C162.572,408.849,163.637,404.874,166.747,403.078L166.747,403.078z"/>
			</defs>
			<clipPath id="SVGID_2_">
				<use xlink:href="#SVGID_1_"  overflow="visible"/>
			</clipPath>
		</g>
		<g>
			<defs>
				<path id="SVGID_3_" d="M166.747,403.078l35.506-20.5c3.108-1.793,7.084-0.729,8.879,2.38l0.501,0.866
					c1.793,3.109,0.729,7.084-2.379,8.88l-35.508,20.5c-3.107,1.795-7.083,0.729-8.878-2.379l-0.501-0.866
					C162.572,408.849,163.637,404.874,166.747,403.078L166.747,403.078z"/>
			</defs>
			<defs>
				<path id="SVGID_4_" d="M186,391.891h2c16.568,0,29.999,13.431,29.999,29.999v2c0,16.568-13.431,30-29.999,30h-2
					c-16.569,0-29.999-13.432-29.999-30v-2C156.001,405.322,169.431,391.891,186,391.891L186,391.891z"/>
			</defs>
			<clipPath id="SVGID_5_">
				<use xlink:href="#SVGID_3_"  overflow="visible"/>
			</clipPath>
			<clipPath id="SVGID_6_" clip-path="url(#SVGID_5_)">
				<use xlink:href="#SVGID_4_"  overflow="visible"/>
			</clipPath>
			<path clip-path="url(#SVGID_6_)" fill="#E2693C" d="M217.207,382.118c1.937,3.341,0.918,7.55-2.274,9.4l-40.993,23.584
				c-3.546,1.968-7.483,0.833-9.287-2.7l0,0c-2.226-3.839-1.166-7.406,2.274-9.4l40.993-23.585c3.191-1.85-8.65,8.36-6.714,11.701
				L217.207,382.118z"/>
		</g>
	</g>
	<g>
		<g>
			<defs>
				<path id="SVGID_7_" d="M166.747,425.078l35.506-20.5c3.108-1.793,7.084-0.729,8.879,2.379l0.501,0.866
					c1.793,3.108,0.729,7.085-2.379,8.88l-35.508,20.5c-3.107,1.797-7.083,0.73-8.878-2.379l-0.501-0.865
					C162.572,430.847,163.637,426.873,166.747,425.078L166.747,425.078z"/>
			</defs>
			<clipPath id="SVGID_8_">
				<use xlink:href="#SVGID_7_"  overflow="visible"/>
			</clipPath>
		</g>
		<g>
			<defs>
				<path id="SVGID_9_" d="M166.747,425.078l35.506-20.5c3.108-1.793,7.084-0.729,8.879,2.379l0.501,0.866
					c1.793,3.108,0.729,7.085-2.379,8.88l-35.508,20.5c-3.107,1.797-7.083,0.73-8.878-2.379l-0.501-0.865
					C162.572,430.847,163.637,426.873,166.747,425.078L166.747,425.078z"/>
			</defs>
			<defs>
				<path id="SVGID_10_" d="M186,391.891h2c16.568,0,29.999,13.431,29.999,29.999v2c0,16.568-13.431,30-29.999,30h-2
					c-16.569,0-29.999-13.432-29.999-30v-2C156.001,405.322,169.431,391.891,186,391.891L186,391.891z"/>
			</defs>
			<clipPath id="SVGID_11_">
				<use xlink:href="#SVGID_9_"  overflow="visible"/>
			</clipPath>
			<clipPath id="SVGID_12_" clip-path="url(#SVGID_11_)">
				<use xlink:href="#SVGID_10_"  overflow="visible"/>
			</clipPath>
			<path clip-path="url(#SVGID_12_)" fill="#E2693C" d="M215.219,405.368c1.919,3.337,0.77,7.598-2.568,9.518l-38.709,22.26
				c-3.337,1.92-7.598,0.771-9.517-2.566l0,0c-1.919-3.338-0.771-7.598,2.568-9.52l38.709-22.259
				C209.039,400.881,213.299,402.03,215.219,405.368L215.219,405.368z"/>
		</g>
	</g>
	<g>
		<g>
			<defs>
				<path id="SVGID_13_" d="M166.747,449.078l35.506-20.498c3.108-1.795,7.084-0.73,8.879,2.377l0.501,0.867
					c1.793,3.107,0.729,7.084-2.379,8.879l-35.508,20.5c-3.107,1.797-7.083,0.73-8.878-2.379l-0.501-0.865
					C162.572,454.847,163.637,450.873,166.747,449.078L166.747,449.078z"/>
			</defs>
			<clipPath id="SVGID_14_">
				<use xlink:href="#SVGID_13_"  overflow="visible"/>
			</clipPath>
		</g>
		<g>
			<defs>
				<path id="SVGID_15_" d="M166.747,449.078l35.506-20.498c3.108-1.795,7.084-0.73,8.879,2.377l0.501,0.867
					c1.793,3.107,0.729,7.084-2.379,8.879l-35.508,20.5c-3.107,1.797-7.083,0.73-8.878-2.379l-0.501-0.865
					C162.572,454.847,163.637,450.873,166.747,449.078L166.747,449.078z"/>
			</defs>
			<defs>
				<path id="SVGID_16_" d="M186,391.891h2c16.568,0,29.999,13.431,29.999,29.999v2c0,16.568-13.431,30-29.999,30h-2
					c-16.569,0-29.999-13.432-29.999-30v-2C156.001,405.322,169.431,391.891,186,391.891L186,391.891z"/>
			</defs>
			<clipPath id="SVGID_17_">
				<use xlink:href="#SVGID_15_"  overflow="visible"/>
			</clipPath>
			<clipPath id="SVGID_18_" clip-path="url(#SVGID_17_)">
				<use xlink:href="#SVGID_16_"  overflow="visible"/>
			</clipPath>
			<path clip-path="url(#SVGID_18_)" fill="#E2693C" d="M147.339,476.402c-3.679,2.127-8.232,1.139-10.17-2.211l20-10
				c-1.939-3.348-20.527,2.211-16.85,0.082l61.008-35.156c3.679-2.129,8.23-1.141,10.169,2.209l0,0
				c1.938,3.348,0.527,7.789-3.151,9.918L147.339,476.402z"/>
		</g>
	</g>
</g>
<g>
	<g>
		<path fill="#463F39" d="M239.653,425.763h-3.655v13.688h-7.945v-34.125h7.945v13.358h2.694l7.5-13.358h9.845l-10.57,15.445
			l11.484,18.679h-9.656L239.653,425.763z"/>
		<path fill="#463F39" d="M271.692,420.232h0.142l6.797-14.906h8.602l-11.602,22.125v12h-7.898v-12.398l-11.367-21.725h8.556
			L271.692,420.232z"/>
		<path fill="#E2693C" d="M289.81,439.451v-34.125h11.719c4.234,0,7.539,0.785,9.914,2.354c2.375,1.57,3.563,3.91,3.563,7.021
			c0,1.625-0.384,3.07-1.148,4.336s-1.945,2.219-3.539,2.859c2,0.453,3.478,1.363,4.43,2.73c0.953,1.367,1.431,2.941,1.431,4.723
			c0,3.328-1.117,5.844-3.353,7.547c-2.234,1.703-5.438,2.555-9.608,2.555H289.81z M297.755,419.553h3.938
			c1.797-0.03,3.142-0.379,4.031-1.043s1.336-1.637,1.336-2.918c0-1.453-0.453-2.512-1.358-3.176
			c-0.906-0.664-2.298-0.996-4.173-0.996h-3.772L297.755,419.553L297.755,419.553z M297.755,424.802v8.555h5.461
			c1.688,0,2.953-0.332,3.797-0.996s1.266-1.684,1.266-3.059c0-1.484-0.363-2.605-1.09-3.363s-1.901-1.137-3.526-1.137H297.755z"/>
		<path fill="#E2693C" d="M348.849,425.458c0,4.203-1.332,7.668-3.996,10.395s-6.146,4.09-10.441,4.09
			c-4.327,0-7.836-1.363-10.522-4.09c-2.688-2.727-4.031-6.191-4.031-10.395v-6.14c0-4.188,1.34-7.648,4.021-10.384
			c2.68-2.734,6.176-4.102,10.487-4.102c4.281,0,7.767,1.367,10.453,4.102c2.688,2.735,4.031,6.195,4.031,10.384L348.849,425.458
			L348.849,425.458z M340.949,419.271c0-2.438-0.573-4.438-1.723-6c-1.149-1.563-2.77-2.345-4.863-2.345
			c-2.141,0-3.776,0.777-4.91,2.332c-1.133,1.556-1.698,3.56-1.698,6.013v6.187c0,2.469,0.573,4.484,1.723,6.047
			s2.793,2.344,4.934,2.344c2.078,0,3.688-0.781,4.828-2.344c1.141-1.563,1.711-3.578,1.711-6.047L340.949,419.271L340.949,419.271z
			"/>
		<path fill="#E2693C" d="M381.66,425.458c0,4.203-1.332,7.668-3.996,10.395c-2.663,2.727-6.145,4.09-10.44,4.09
			c-4.328,0-7.836-1.363-10.523-4.09c-2.687-2.727-4.03-6.191-4.03-10.395v-6.14c0-4.188,1.34-7.648,4.02-10.384
			c2.68-2.734,6.176-4.102,10.488-4.102c4.281,0,7.766,1.367,10.453,4.102c2.687,2.735,4.03,6.195,4.03,10.384L381.66,425.458
			L381.66,425.458z M373.763,419.271c0-2.438-0.574-4.438-1.724-6c-1.148-1.563-2.77-2.345-4.862-2.345
			c-2.142,0-3.777,0.777-4.91,2.332c-1.133,1.556-1.699,3.56-1.699,6.013v6.187c0,2.469,0.574,4.484,1.723,6.047
			c1.149,1.563,2.794,2.344,4.935,2.344c2.078,0,3.688-0.781,4.828-2.344c1.14-1.563,1.711-3.578,1.711-6.047L373.763,419.271
			L373.763,419.271z"/>
		<path fill="#E2693C" d="M397.856,425.763h-3.656v13.688h-7.944v-34.125h7.944v13.358h2.695l7.5-13.358h9.844l-10.569,15.445
			l11.483,18.679h-9.656L397.856,425.763z"/>
	</g>
</g>
</svg>
